HIERARCHY
ROOT Hips
{
	OFFSET -3.958830 18.904000 13.208200
	CHANNELS 6 Xposition Yposition Zposition Zrotation Yrotation Xrotation 
	JOINT LHipJoint
	{
		OFFSET 0.000000 0.000000 0.000000
		CHANNELS 3 Zrotation Yrotation Xrotation
		JOINT LeftUpLeg
		{
			OFFSET 1.800000 -1.400000 0.085000
			CHANNELS 3 Zrotation Yrotation Xrotation
			JOINT LeftLeg
			{
				OFFSET 2.215000 -6.000000 0.000000
				CHANNELS 3 Zrotation Yrotation Xrotation
				JOINT LeftFoot
				{
					OFFSET 2.500000 -6.900000 0.000000
					CHANNELS 3 Zrotation Yrotation Xrotation
					JOINT LeftToeBase
					{
						OFFSET 0.200000 -0.500000 1.950000
						CHANNELS 3 Zrotation Yrotation Xrotation
						End Site
						{
							OFFSET 0.000000 0.000000 0.000000
						}
					}
				}
			}
		}
	}
	JOINT RHipJoint
	{
		OFFSET 0.000000 0.000000 0.000000
		CHANNELS 3 Zrotation Yrotation Xrotation
		JOINT RightUpLeg
		{
			OFFSET -1.800000 -1.400000 0.085000
			CHANNELS 3 Zrotation Yrotation Xrotation
			JOINT RightLeg
			{
				OFFSET -2.215000 -6.000000 0.000000
				CHANNELS 3 Zrotation Yrotation Xrotation
				JOINT RightFoot
				{
					OFFSET -2.500000 -6.900000 0.000000
					CHANNELS 3 Zrotation Yrotation Xrotation
					JOINT RightToeBase
					{
						OFFSET -0.200000 -0.500000 1.950000
						CHANNELS 3 Zrotation Yrotation Xrotation
						End Site
						{
							OFFSET 0.000000 0.000000 0.000000
						}
					}
				}
			}
		}
	}
	JOINT LowerBack
	{
		OFFSET 0.000000 0.000000 0.000000
		CHANNELS 3 Zrotation Yrotation Xrotation
		JOINT Spine
		{
			OFFSET -0.087000 1.940000 -0.288900
			CHANNELS 3 Zrotation Yrotation Xrotation
			JOINT Spine1
			{
				OFFSET 0.000000 1.950000 0.060000
				CHANNELS 3 Zrotation Yrotation Xrotation
				JOINT Neck
				{
					OFFSET 0.000000 0.000000 0.000000
					CHANNELS 3 Zrotation Yrotation Xrotation
					JOINT Neck1
					{
						OFFSET 0.000000 1.600000 0.340000
						CHANNELS 3 Zrotation Yrotation Xrotation
						JOINT Head
						{
							OFFSET 0.000000 1.667000 -0.240000
							CHANNELS 3 Zrotation Yrotation Xrotation
							End Site
							{
								OFFSET 0.000000 0.000000 0.000000
							}
						}
					}
				}
				JOINT LeftShoulder
				{
					OFFSET 0.000000 0.000000 0.000000
					CHANNELS 3 Zrotation Yrotation Xrotation
					JOINT LeftArm
					{
						OFFSET 2.700000 1.550000 -0.730000
						CHANNELS 3 Zrotation Yrotation Xrotation
						JOINT LeftForeArm
						{
							OFFSET 5.450000 0.000000 0.000000
							CHANNELS 3 Zrotation Yrotation Xrotation
							JOINT LeftHand
							{
								OFFSET 3.450000 0.000000 0.000000
								CHANNELS 3 Zrotation Yrotation Xrotation
								JOINT LeftHandIndex1
								{
									OFFSET 0.750000 0.000000 0.000000
									CHANNELS 3 Zrotation Yrotation Xrotation
									End Site
									{
										OFFSET 0.000000 0.000000 0.000000
									}
								}
							}
						}
					}
				}
				JOINT RightShoulder
				{
					OFFSET 0.000000 0.000000 0.000000
					CHANNELS 3 Zrotation Yrotation Xrotation
					JOINT RightArm
					{
						OFFSET -2.700000 1.550000 -0.730000
						CHANNELS 3 Zrotation Yrotation Xrotation
						JOINT RightForeArm
						{
							OFFSET -5.450000 0.000000 0.000000
							CHANNELS 3 Zrotation Yrotation Xrotation
							JOINT RightHand
							{
								OFFSET -3.450000 0.000000 0.000000
								CHANNELS 3 Zrotation Yrotation Xrotation
								JOINT RightHandIndex1
								{
									OFFSET -0.750000 0.000000 0.000000
									CHANNELS 3 Zrotation Yrotation Xrotation
									End Site
									{
										OFFSET 0.000000 0.000000 0.000000
									}
								}
							}
						}
					}
				}
			}
		}
	}
}
MOTION
Frames: 6
Frame Time: 0.016667
0.293020 17.031900 -0.974160 -4.301584 -3.173590 1.347755 -15.317650 14.232519 3.484218 2.156948 -0.353465 -4.827226 -6.721951 4.633472 5.249362 -0.746110 4.517111 3.606813 0.492410 -0.170240 0.262620 17.934267 -10.398447 3.276818 0.810261 -0.037376 -3.865340 6.600684 -4.784347 5.805903 -0.637368 -3.543116 3.540561 -0.096250 0.691560 0.399480 -2.809854 -3.957091 -8.597114 11.858603 -0.454782 17.240647 -3.564449 3.114829 -15.689602 4.219294 -4.591160 -10.376481 -13.425779 5.907481 48.435240 -0.815200 -0.316530 -9.993310 -11.156090 -3.996147 0.133007 25.407365 7.733649 3.090820 5.303635 -1.081959 -1.518762 -3.813246 2.475773 1.174910 0.220890 -0.030360 0.496910 3.636871 10.979430 5.503924 -27.631106 -12.680679 2.276436 0.657675 12.030013 0.854757 1.682552 -1.524382 -0.485640 0.552340 0.034980 -0.285190 
0.292610 17.033530 -0.972420 -4.195491 -3.188466 1.198755 -15.324809 14.271945 3.479911 2.144738 -0.357316 -4.961772 -6.816013 4.735183 5.834681 -0.746785 4.540915 3.602270 0.499680 -0.165000 0.274400 17.917558 -10.415263 3.260296 0.658689 0.000164 -3.980072 6.678107 -4.854222 6.344402 -0.635506 -3.547945 3.540468 -0.092250 0.695180 0.400990 -2.774527 -3.997599 -8.585607 11.546445 -0.478730 17.608085 -3.422434 3.139015 -15.954988 4.214896 -4.553899 -10.381588 -13.340439 5.803415 48.252772 -0.897280 -0.343630 -10.174990 -10.964678 -3.650914 -0.025478 25.212798 7.203560 3.002101 5.318216 -0.949171 -1.529383 -3.824027 2.456312 1.175830 0.223650 -0.028360 0.500130 3.512649 10.629852 5.667075 -26.918959 -12.272282 2.113741 -1.033887 11.972822 0.778250 1.698350 -1.477945 -0.487330 0.558710 0.027380 -0.285160 
0.293710 17.032450 -0.969800 -4.221851 -3.265457 1.042178 -15.323312 14.301708 3.469651 2.301875 -0.352125 -5.060519 -6.998512 4.859628 6.381826 -0.746529 4.577517 3.587414 0.501310 -0.159510 0.275270 17.912251 -10.428230 3.248051 0.631620 0.032797 -4.077154 6.747364 -4.924048 6.879254 -0.633901 -3.557719 3.535087 -0.087160 0.696580 0.400900 -2.766553 -4.022525 -8.570028 11.525074 -0.511318 17.901596 -3.432217 3.162528 -15.987509 4.218003 -4.514162 -10.393606 -13.225882 5.722062 47.982192 -1.037380 -0.296420 -10.352580 -10.920811 -3.374813 -0.168105 25.019844 6.776085 2.930120 5.505608 -0.862172 -1.523267 -3.836847 2.444466 1.173080 0.226120 -0.028370 0.500610 3.471918 10.311182 5.862411 -26.117268 -11.875667 1.919523 -2.709723 11.703327 0.688956 1.713313 -1.433295 -0.488190 0.562090 0.026960 -0.284530 
0.296410 17.032400 -0.971960 -4.260927 -3.303127 0.752765 -15.320487 14.346321 3.453498 2.436908 -0.343530 -5.164825 -7.068508 4.996109 7.135135 -0.757409 4.620749 3.569280 0.496610 -0.161940 0.270790 17.906703 -10.444833 3.231625 0.608994 0.067330 -4.145276 6.745657 -5.015169 7.596646 -0.633926 -3.571556 3.526358 -0.084850 0.700900 0.398780 -2.761057 -4.067126 -8.545308 11.522939 -0.604316 18.411682 -3.463853 3.156127 -15.906503 4.207454 -4.497313 -10.465055 -13.179201 5.727952 47.710627 -1.070340 -0.205680 -10.730550 -11.008210 -3.194384 -0.246072 24.772412 6.616585 2.897445 5.850357 -0.883037 -1.506448 -3.848974 2.425393 1.181370 0.226010 -0.027970 0.499160 3.594317 10.062841 6.127218 -25.206175 -11.569802 1.690544 -4.680737 11.325529 0.604028 1.729021 -1.376632 -0.497380 0.571380 0.033890 -0.286570 
0.296540 17.031030 -0.977670 -4.294964 -3.281078 0.303981 -15.317300 14.392758 3.430248 2.662720 -0.337525 -5.231897 -7.157192 5.175073 8.099722 -0.757621 4.673884 3.539953 0.509450 -0.154660 0.292240 17.900137 -10.468530 3.215210 0.556175 0.098997 -4.128154 6.785830 -5.139064 8.443695 -0.644628 -3.596413 3.510260 -0.082630 0.680150 0.404380 -2.755240 -4.100106 -8.519873 11.440793 -0.687402 19.032752 -3.533735 3.147888 -15.516061 4.244301 -4.305498 -10.621812 -12.834733 5.570049 47.646401 -1.245810 -0.074910 -11.341140 -11.306115 -3.310146 -0.238867 24.782642 6.634692 2.860983 6.089627 -0.761935 -1.504192 -3.849737 2.415859 1.194230 0.215740 -0.014840 0.492860 3.828220 9.930360 6.518694 -24.038117 -11.529982 1.423570 -6.654935 10.703091 0.523974 1.753169 -1.326440 -0.492470 0.562300 0.026920 -0.297480 
0.298730 17.025980 -0.987070 -4.361724 -3.311215 -0.289758 -15.313561 14.448944 3.398109 2.936915 -0.309666 -5.249525 -7.187323 5.388888 9.264892 -0.751098 4.743901 3.503948 0.511270 -0.149090 0.297120 17.894658 -10.493930 3.189180 0.461498 0.142680 -4.105875 6.865142 -5.315239 9.580222 -0.658291 -3.640897 3.483594 -0.085380 0.668470 0.409440 -2.751418 -4.145848 -8.478597 11.439233 -0.780066 19.804419 -3.553194 3.148895 -14.779154 4.268310 -4.247838 -10.785545 -12.733629 5.483624 47.285107 -1.412440 0.056900 -12.127780 -11.754195 -3.460453 -0.159710 24.500420 6.836200 2.808416 6.528187 -0.594170 -1.488008 -3.857551 2.405060 1.202610 0.205960 -0.002810 0.486580 4.224533 9.918838 6.901629 -22.973268 -11.566691 1.144543 -8.711556 9.866350 0.452551 1.780590 -1.279782 -0.486070 0.558920 0.029980 -0.299150 
